<?xml version="1.0" encoding="UTF-8"?> <svg xmlns="http://www.w3.org/2000/svg" width="74" height="72" viewBox="0 0 74 72" fill="none"><rect x="0.5" width="73" height="72" rx="12" fill="#212847"></rect><path d="M39.6127 29.9197C38.6348 30.5998 37.4381 30.9999 36.1457 30.9999C32.8435 30.9999 30.1665 28.3882 30.1665 25.1666C30.1665 21.9449 32.8435 19.3333 36.1457 19.3333C38.2862 19.3333 40.164 20.4306 41.2203 22.0802M26.7498 49.4785H31.2091C31.7905 49.4785 32.3683 49.546 32.932 49.681L37.6437 50.7981C38.6661 51.041 39.7311 51.0647 40.7641 50.8689L45.9737 49.8801C47.3498 49.6186 48.6158 48.9757 49.6079 48.0341L53.2937 44.5361C54.3463 43.5389 54.3463 41.9206 53.2937 40.9217C52.3461 40.0223 50.8454 39.9211 49.7733 40.6838L45.4776 43.7413C44.8624 44.1801 44.1139 44.4163 43.344 44.4163H39.1959L41.8362 44.4162C43.3244 44.4162 44.5299 43.2721 44.5299 41.8598V41.3485C44.5299 40.1758 43.6889 39.1532 42.4905 38.8697L38.4154 37.9028C37.7522 37.7459 37.073 37.6666 36.3902 37.6666C34.742 37.6666 31.7585 38.9979 31.7585 38.9979L26.7498 41.0414M50.6665 26.8333C50.6665 30.0549 47.9895 32.6666 44.6873 32.6666C41.3851 32.6666 38.7082 30.0549 38.7082 26.8333C38.7082 23.6116 41.3851 20.9999 44.6873 20.9999C47.9895 20.9999 50.6665 23.6116 50.6665 26.8333ZM19.9165 40.3333L19.9165 49.9999C19.9165 50.9333 19.9165 51.4 20.1027 51.7566C20.2665 52.0702 20.5278 52.3251 20.8493 52.4849C21.2147 52.6666 21.6931 52.6666 22.6498 52.6666H24.0165C24.9733 52.6666 25.4516 52.6666 25.8171 52.4849C26.1385 52.3251 26.3999 52.0702 26.5636 51.7566C26.7498 51.4001 26.7498 50.9333 26.7498 49.9999V40.3333C26.7498 39.3998 26.7498 38.9331 26.5636 38.5766C26.3999 38.263 26.1385 38.008 25.8171 37.8482C25.4516 37.6666 24.9733 37.6666 24.0165 37.6666L22.6498 37.6666C21.6931 37.6666 21.2147 37.6666 20.8493 37.8482C20.5278 38.008 20.2665 38.263 20.1027 38.5766C19.9165 38.9331 19.9165 39.3998 19.9165 40.3333Z" stroke="white" stroke-width="2" stroke-linecap="round" stroke-linejoin="round"></path></svg> 