<?xml version="1.0" encoding="UTF-8"?> <svg xmlns="http://www.w3.org/2000/svg" width="74" height="72" viewBox="0 0 74 72" fill="none"><rect x="0.5" width="73" height="72" rx="12" fill="#0D1B23"></rect><path d="M40.6851 30.2499H35.8934C34.3056 30.2499 33.0184 31.5371 33.0184 33.1249C33.0184 34.7127 34.3056 35.9999 35.8934 35.9999H37.8101C39.3979 35.9999 40.6851 37.2871 40.6851 38.8749C40.6851 40.4627 39.3979 41.7499 37.8101 41.7499H33.0184M36.8517 28.3333V30.2499M36.8517 41.7499V43.6666M48.3517 35.9999H48.3709M25.3517 35.9999H25.3709M17.6851 28.7166L17.6851 43.2832C17.6851 45.4301 17.6851 46.5036 18.1029 47.3235C18.4704 48.0448 19.0568 48.6313 19.7781 48.9988C20.5981 49.4166 21.6715 49.4166 23.8184 49.4166L49.8851 49.4166C52.0319 49.4166 53.1054 49.4166 53.9254 48.9988C54.6466 48.6313 55.2331 48.0448 55.6006 47.3235C56.0184 46.5036 56.0184 45.4301 56.0184 43.2833V28.7166C56.0184 26.5697 56.0184 25.4963 55.6006 24.6763C55.2331 23.955 54.6466 23.3686 53.9254 23.0011C53.1054 22.5833 52.0319 22.5833 49.8851 22.5833L23.8184 22.5833C21.6715 22.5833 20.5981 22.5833 19.7781 23.0011C19.0568 23.3686 18.4704 23.955 18.1029 24.6763C17.6851 25.4963 17.6851 26.5697 17.6851 28.7166ZM49.3101 35.9999C49.3101 36.5292 48.881 36.9583 48.3517 36.9583C47.8225 36.9583 47.3934 36.5292 47.3934 35.9999C47.3934 35.4706 47.8225 35.0416 48.3517 35.0416C48.881 35.0416 49.3101 35.4706 49.3101 35.9999ZM26.3101 35.9999C26.3101 36.5292 25.881 36.9583 25.3517 36.9583C24.8225 36.9583 24.3934 36.5292 24.3934 35.9999C24.3934 35.4706 24.8225 35.0416 25.3517 35.0416C25.881 35.0416 26.3101 35.4706 26.3101 35.9999Z" stroke="white" stroke-width="1.5" stroke-linecap="round" stroke-linejoin="round"></path></svg> 